# xmcd
#
# Track frame offsets:
#	150
#	14149
#	31206
#	44701
#	56862
#	68440
#	79810
#	93860
#	107554
#	121800
#	135950
#	151352
#	167235
#	181734
#	196111
#	206912
#	220583
#	234493
#	249703
#	266385
#	279076
#	292201
#	305305
#	318474
#	331545
#
# Disc length: 4556 seconds
#
# Revision: 1
# Processed by: cddbd v1.5.2PL0 Copyright (c) Steve Scherf et al.
# Submitted via: audiograbber 1.83.01
#
DISCID=5b11ca19
DTITLE=Wolfgang Hohlbein - Sturm cd 5
DYEAR=2007
DGENRE=Hörbuch
TTITLE0=99
TTITLE1=100
TTITLE2=101
TTITLE3=102
TTITLE4=103
TTITLE5=104
TTITLE6=105
TTITLE7=106
TTITLE8=107
TTITLE9=108
TTITLE10=109
TTITLE11=110
TTITLE12=111
TTITLE13=112
TTITLE14=113
TTITLE15=114
TTITLE16=115
TTITLE17=116
TTITLE18=117
TTITLE19=118
TTITLE20=119
TTITLE21=120
TTITLE22=121
TTITLE23=122
TTITLE24=123
EXTD=
EXTT0=
EXTT1=
EXTT2=
EXTT3=
EXTT4=
EXTT5=
EXTT6=
EXTT7=
EXTT8=
EXTT9=
EXTT10=
EXTT11=
EXTT12=
EXTT13=
EXTT14=
EXTT15=
EXTT16=
EXTT17=
EXTT18=
EXTT19=
EXTT20=
EXTT21=
EXTT22=
EXTT23=
EXTT24=
PLAYORDER=
